<mxfile host="app.diagrams.net" modified="2024-07-04T11:05:24.052Z" agent="Mozilla/5.0 (Windows NT 10.0; Win64; x64; rv:127.0) Gecko/20100101 Firefox/127.0" version="24.6.2" etag="VZHAZkfrftpMsWMpMlZI" type="github">
  <diagram name="Pagina-1" id="Cy4QOtY5WiPTaLgYu-T2">
    <mxGraphModel>
      <root>
        <mxCell id="0" />
        <mxCell id="1" parent="0" />
      </root>
    </mxGraphModel>
  </diagram>
</mxfile>
